<?xml version="1.0" encoding="UTF-8" standalone="no"?>
<!DOCTYPE svg PUBLIC "-//W3C//DTD SVG 1.1//EN" "http://www.w3.org/Graphics/SVG/1.1/DTD/svg11.dtd">
<svg width="100%" height="100%" viewBox="0 0 709 709" version="1.1" xmlns="http://www.w3.org/2000/svg" xmlns:xlink="http://www.w3.org/1999/xlink" xml:space="preserve" xmlns:serif="http://www.serif.com/" style="fill-rule:evenodd;clip-rule:evenodd;stroke-linejoin:round;stroke-miterlimit:2;">
    <g transform="matrix(1,0,0,1,-106.761,-186.61)">
        <g id="hindi-white-logo">
            <g transform="matrix(0.56625,0,0,0.56625,-168.376,54.3347)">
                <path d="M1737.39,546.473C1737.39,373.793 1597.2,233.598 1424.52,233.598L798.769,233.598C626.089,233.598 485.894,373.793 485.894,546.473L485.894,1172.22C485.894,1344.9 626.089,1485.1 798.769,1485.1L1424.52,1485.1C1597.2,1485.1 1737.39,1344.9 1737.39,1172.22L1737.39,546.473Z"/>
            </g>
            <g transform="matrix(1,0,0,1,0,-1579.78)">
                <path d="M596.969,2342.01L596.969,2392.74L583.889,2392.74L583.889,2342.01L573.392,2342.01L573.392,2360.84C573.392,2366.17 571.976,2370.47 569.144,2373.75C566.311,2377.03 562.035,2378.67 556.314,2378.67C550.76,2378.67 546.456,2377.18 543.401,2374.21C540.346,2371.24 538.819,2367 538.819,2361.5C538.819,2360.28 538.847,2359.39 538.902,2358.84L551.565,2358.84L551.565,2361.42C551.565,2365.47 553.037,2367.5 555.981,2367.5C558.813,2367.5 560.23,2365.45 560.23,2361.34L560.23,2342.01L528.989,2342.01L528.989,2392.74L515.909,2392.74L515.909,2342.01L502.413,2342.01L502.413,2392.74L489.25,2392.74L489.25,2379.75C487.473,2381.69 485.238,2383.21 482.544,2384.29C479.85,2385.37 476.754,2385.91 473.255,2385.91C466.09,2385.91 460.537,2383.8 456.593,2379.58C452.65,2375.36 450.678,2369.64 450.678,2362.42C450.678,2360.59 450.789,2358.92 451.012,2357.42L451.845,2357.42C456.399,2357.42 459.592,2356.44 461.425,2354.46C463.258,2352.49 464.174,2349.59 464.174,2345.76L464.174,2342.01L438.182,2342.01L438.182,2357.34L422.936,2357.34C421.381,2357.34 420.09,2357.64 419.063,2358.26C418.035,2358.87 417.521,2359.84 417.521,2361.17C417.521,2362.5 417.98,2363.48 418.896,2364.09C419.812,2364.7 420.993,2365 422.437,2365L426.185,2365C431.017,2365 435.086,2366.17 438.39,2368.5C441.695,2370.84 443.347,2374.53 443.347,2379.58C443.347,2384.14 441.709,2387.75 438.432,2390.41C435.155,2393.08 430.545,2394.41 424.603,2394.41C418.382,2394.41 413.314,2392.99 409.399,2390.16C405.483,2387.33 403.414,2383.39 403.192,2378.33L416.188,2378.33C416.244,2380.33 417.021,2381.87 418.521,2382.96C420.021,2384.04 421.909,2384.58 424.186,2384.58C426.352,2384.58 428.032,2384.12 429.226,2383.21C430.42,2382.29 431.017,2381.05 431.017,2379.5C431.017,2377.72 430.365,2376.4 429.06,2375.54C427.754,2374.68 425.991,2374.25 423.769,2374.25L420.77,2374.25C416.494,2374.25 412.689,2373.26 409.357,2371.29C406.025,2369.32 404.359,2365.81 404.359,2360.75C404.359,2356.59 405.789,2353.45 408.649,2351.34C411.509,2349.23 415.161,2348.17 419.604,2348.17L425.519,2348.17L425.519,2342.01L392.112,2342.01L392.112,2392.74L379.033,2392.74L379.033,2342.01L339.044,2342.01L339.044,2354.34C340.266,2352.51 341.891,2351.08 343.918,2350.05C345.945,2349.02 348.319,2348.51 351.041,2348.51C354.484,2348.51 357.483,2349.36 360.038,2351.05C362.593,2352.74 364.537,2355.03 365.87,2357.92C367.203,2360.81 367.869,2364.03 367.869,2367.59C367.869,2371.53 367.133,2374.93 365.662,2377.79C364.19,2380.65 362.163,2382.83 359.58,2384.33C356.997,2385.83 354.04,2386.58 350.708,2386.58C348.708,2386.58 346.82,2386.36 345.043,2385.91L345.043,2375.67C345.653,2375.83 346.348,2375.92 347.125,2375.92C349.347,2375.92 351.152,2375.21 352.54,2373.79C353.929,2372.38 354.623,2370.42 354.623,2367.92C354.623,2365.53 353.915,2363.56 352.499,2362C351.082,2360.45 349.208,2359.67 346.875,2359.67C344.321,2359.67 342.377,2360.53 341.044,2362.25C339.711,2363.97 339.044,2366.14 339.044,2368.75L339.044,2392.74L326.465,2392.74L326.465,2381.16C325.187,2383.11 323.438,2384.64 321.216,2385.75C318.995,2386.86 316.412,2387.41 313.468,2387.41C310.025,2387.41 306.998,2386.59 304.388,2384.95C301.777,2383.32 299.778,2381.01 298.39,2378.04C297.001,2375.07 296.307,2371.7 296.307,2367.92C296.307,2362.09 297.89,2357.39 301.055,2353.84C304.221,2350.28 308.525,2348.51 313.968,2348.51C316.856,2348.51 319.356,2349.02 321.466,2350.05C323.577,2351.08 325.243,2352.51 326.465,2354.34L326.465,2342.01L290.475,2342.01L290.475,2331.1L379.532,2331.1C377.311,2327.71 375.52,2325.26 374.159,2323.76C372.798,2322.26 371.382,2321.25 369.91,2320.72C368.438,2320.2 366.425,2319.93 363.87,2319.93L359.538,2319.93L359.538,2309.44L363.62,2309.44C368.286,2309.49 371.965,2309.99 374.659,2310.93C377.353,2311.88 379.977,2313.85 382.532,2316.85C385.086,2319.85 388.169,2324.6 391.779,2331.1L516.409,2331.1C514.187,2327.71 512.396,2325.26 511.036,2323.76C509.675,2322.26 508.259,2321.25 506.787,2320.72C505.315,2320.2 503.302,2319.93 500.747,2319.93L496.415,2319.93L496.415,2309.44L500.497,2309.44C505.162,2309.49 508.842,2309.99 511.535,2310.93C514.229,2311.88 516.853,2313.85 519.408,2316.85C521.963,2319.85 525.045,2324.6 528.655,2331.1L583.889,2331.1L583.889,2328.6C583.889,2321.88 585.472,2316.57 588.638,2312.68C591.804,2308.8 596.885,2306.85 603.883,2306.85C616.991,2306.85 623.544,2314.1 623.544,2328.6L623.544,2331.1L631.709,2331.1L631.709,2342.01L623.544,2342.01L623.544,2392.74L610.465,2392.74L610.465,2342.01L596.969,2342.01ZM317.967,2376.42C320.577,2376.42 322.646,2375.57 324.174,2373.88C325.701,2372.18 326.465,2370.2 326.465,2367.92C326.465,2365.64 325.715,2363.68 324.215,2362.05C322.716,2360.41 320.661,2359.59 318.05,2359.59C315.607,2359.59 313.58,2360.37 311.969,2361.92C310.358,2363.48 309.553,2365.5 309.553,2368C309.553,2370.56 310.33,2372.6 311.886,2374.12C313.441,2375.65 315.468,2376.42 317.967,2376.42ZM489.25,2342.01L477.087,2342.01L477.087,2348.17C477.087,2352.67 476.018,2356.31 473.88,2359.09C471.742,2361.87 468.34,2363.53 463.674,2364.09C463.786,2367.36 464.924,2370 467.09,2372C469.256,2374 472.255,2375 476.088,2375C480.086,2375 483.28,2373.75 485.668,2371.25C488.056,2368.75 489.25,2365.56 489.25,2361.67L489.25,2342.01ZM610.881,2327.93C610.881,2321.21 608.549,2317.85 603.883,2317.85C598.996,2317.85 596.552,2321.21 596.552,2327.93L596.552,2331.1L610.881,2331.1L610.881,2327.93ZM436.826,2218.29C436.927,2218.13 437.049,2217.99 437.191,2217.87C443.493,2212.36 448.834,2207.62 453.357,2203.57C453.509,2203.44 473.508,2185.73 488.378,2172.92C513.39,2151.38 540.87,2143.97 564.547,2146.43C603.019,2150.41 632.576,2179.68 631.689,2222.03C631.684,2222.29 631.649,2223.23 631.642,2223.39C629.828,2265.71 598.467,2293.03 559.819,2294.56C536.034,2295.5 509.081,2286.37 485.493,2263.27C484.172,2261.98 482.808,2260.64 481.422,2259.27C481.414,2259.26 481.408,2259.26 481.403,2259.24C477.999,2255.9 475.949,2251.19 476.113,2246.05C476.425,2236.28 484.613,2228.59 494.386,2228.91C498.861,2229.05 502.897,2230.84 505.928,2233.68C505.93,2233.68 505.932,2233.68 505.933,2233.69L506.489,2234.23C507.404,2235.13 509.228,2236.92 510.281,2237.95C525.667,2253.02 542.906,2259.77 558.42,2259.16C578.72,2258.35 595.289,2244.1 596.242,2221.87C596.246,2221.77 596.262,2221.37 596.264,2221.29C596.73,2199.05 581.102,2183.77 560.895,2181.67C545.451,2180.07 527.817,2185.71 511.503,2199.77C501.074,2208.75 492.461,2216.27 485.358,2222.54C485.257,2222.7 485.135,2222.84 484.992,2222.96C478.691,2228.48 473.349,2233.21 468.827,2237.26C468.675,2237.39 448.676,2255.1 433.806,2267.91C408.794,2289.46 381.313,2296.86 357.637,2294.4C319.164,2290.42 289.608,2261.15 290.495,2218.8C290.5,2218.54 290.534,2217.6 290.541,2217.44C292.355,2175.12 323.717,2147.8 362.365,2146.27C386.15,2145.33 413.103,2154.47 436.691,2177.56C438.012,2178.86 439.375,2180.2 440.762,2181.56C440.77,2181.57 440.776,2181.58 440.781,2181.59C444.184,2184.94 446.234,2189.64 446.07,2194.78C445.759,2204.56 437.571,2212.24 427.798,2211.93C423.323,2211.78 419.286,2209.99 416.256,2207.15C416.254,2207.15 416.252,2207.15 416.251,2207.14L415.694,2206.6C414.78,2205.7 412.956,2203.91 411.902,2202.88C396.517,2187.82 379.278,2181.06 363.764,2181.68C343.464,2182.48 326.895,2196.73 325.942,2218.96C325.937,2219.06 325.922,2219.46 325.92,2219.54C325.454,2241.78 341.082,2257.07 361.289,2259.16C376.732,2260.76 394.366,2255.12 410.681,2241.07C421.11,2232.08 429.722,2224.56 436.826,2218.29ZM461.092,1976.44C466.093,1976.41 471.074,1978.48 474.608,1982.55L565.372,2086.96L578.807,2067.04C584.291,2058.91 595.344,2056.76 603.474,2062.25C611.604,2067.73 613.752,2078.78 608.268,2086.91L581.908,2125.99C581.279,2126.93 580.576,2127.78 579.814,2128.55L579.437,2128.92C579.233,2129.12 579.022,2129.31 578.806,2129.5C571.405,2135.93 560.173,2135.15 553.739,2127.74L461.092,2021.17L368.444,2127.74C362.011,2135.15 350.779,2135.93 343.377,2129.5C343.161,2129.31 342.951,2129.12 342.747,2128.92L342.37,2128.55C341.607,2127.78 340.905,2126.93 340.276,2125.99L313.915,2086.91C308.432,2078.78 310.58,2067.73 318.71,2062.25C326.84,2056.76 337.893,2058.91 343.376,2067.04L356.812,2086.96L447.575,1982.55C451.109,1978.48 456.091,1976.41 461.092,1976.44ZM520.147,1906.09C520.147,1873.5 493.685,1847.03 461.092,1847.03C428.498,1847.03 402.037,1873.5 402.037,1906.09C402.037,1938.68 428.498,1965.14 461.092,1965.14C493.685,1965.14 520.147,1938.68 520.147,1906.09Z" style="fill:white;fill-rule:nonzero;"/>
            </g>
        </g>
    </g>
</svg>
